<svg xmlns="http://www.w3.org/2000/svg" width="36" height="36" viewBox="0 0 24 24" fill="currentColor" stroke-width="2" class="ai ai-DotGridFill">
  <path
    fill-rule="evenodd"
    clip-rule="evenodd"
    d="M4 2a2 2 0 1 1 0 4 2 2 0 0 1 0-4zm8 0a2 2 0 1 1 0 4 2 2 0 0 1 0-4zm10 2a2 2 0 1 0-4 0 2 2 0 0 0 4 0zM4 10a2 2 0 1 1 0 4 2 2 0 0 1 0-4zm10 2a2 2 0 1 0-4 0 2 2 0 0 0 4 0zm6-2a2 2 0 1 1 0 4 2 2 0 0 1 0-4zM6 20a2 2 0 1 0-4 0 2 2 0 0 0 4 0zm6-2a2 2 0 1 1 0 4 2 2 0 0 1 0-4zm10 2a2 2 0 1 0-4 0 2 2 0 0 0 4 0z" />
</svg>
